<?xml version="1.0" encoding="UTF-8" standalone="no"?>
<!-- Created with Inkscape (http://www.inkscape.org/) -->

<svg
   width="88.170013mm"
   height="13.279971mm"
   viewBox="0 0 88.170013 13.279971"
   version="1.1"
   id="svg1"
   xml:space="preserve"
   xmlns="http://www.w3.org/2000/svg"
   xmlns:svg="http://www.w3.org/2000/svg"><defs
     id="defs1" /><g
     id="layer1"
     transform="translate(-43.491918,-70.816496)"><g
       style="fill:none"
       id="g2"
       transform="matrix(0.26458333,0,0,0.26458333,43.853867,71.212312)"><path
         d="m 32.176,44.144 1.0505,1.4616 0.9921,-0.713 -0.2963,-1.1852 z m -5.248,2.112 -0.353,-1.7651 -0.0069,0.0015 z m -14.144,-0.576 -0.6054,1.6951 0.018,0.0065 0.0182,0.006 z m -6.336,-4.032 -1.28734,1.2581 0.00723,0.0074 0.00732,0.0073 z m -4.416,-7.232 -1.695135,0.6054 0.005247,0.0147 0.005501,0.0146 z M 2.224,12.592 0.561015,11.903 0.556097,11.9152 Z M 6.96,5.424 8.18817,6.7399 8.18919,6.73895 Z M 13.488,1.52 14.0388,3.23365 14.0526,3.22921 14.0663,3.22456 Z M 27.12,0.815998 26.7753,2.5827 26.7832,2.58421 Z M 31.536,2.032 33.2891,2.44006 33.6373,0.944414 32.2151,0.365031 Z m -1.728,7.424 -0.7766,1.6238 2.0217,0.9669 0.508,-2.18264 z m -3.52,-1.024 -0.2866,1.7771 0.0087,0.0013 z m -13.44,3.456 -1.3618,-1.1771 -0.0057,0.0066 -0.0057,0.0068 z m -2.432,18.048 -1.73925,0.4638 0.00268,0.0098 z m 2.304,4.864 -1.44,1.08 0.019,0.0253 0.0199,0.0247 z m 3.904,3.136 -0.805,1.61 0.0265,0.0132 0.027,0.0124 z m 10.304,0.512 -0.5019,-1.7286 v 0 z m 3.456,-1.472 1.7463,-0.4366 -0.5932,-2.3725 -2.089,1.2715 z m 0.7415,5.7064 c -1.1055,0.7945 -2.5977,1.418 -4.5505,1.8086 l 0.706,3.53 c 2.3139,-0.4627 4.3203,-1.2472 5.9455,-2.4154 z m -4.5574,1.81 c -1.9676,0.4015 -4.0015,0.6036 -6.1041,0.6036 v 3.6 c 2.3348,0 4.6102,-0.2246 6.8239,-0.6764 z M 20.464,45.096 c -2.504,0 -4.8711,-0.3771 -7.1108,-1.1236 l -1.1384,3.4152 c 2.6243,0.8748 5.3772,1.3084 8.2492,1.3084 z M 13.3894,43.9849 C 11.2569,43.2232 9.37141,42.0258 7.72079,40.3752 l -2.54558,2.5456 c 2.01871,2.0187 4.35727,3.5093 7.00339,4.4543 z M 7.73534,40.3899 C 6.10571,38.7224 4.75503,36.5377 3.71639,33.7813 L 0.347613,35.0507 C 1.52764,38.1823 3.12096,40.8189 5.16066,42.9061 Z M 3.72714,33.8106 C 2.74862,31.0707 2.232,27.682 2.232,23.6 h -3.6 c 0,4.366 0.550051,8.1879 1.704865,11.4214 z M 2.232,23.6 c 0,-4.2455 0.579,-7.6675 1.6599,-10.3312 L 0.556097,11.9152 C -0.752334,15.1395 -1.368,19.0562 -1.368,23.6 Z M 3.88694,13.2809 C 5.048,10.4784 6.49444,8.32072 8.18817,6.7399 L 5.73183,4.1081 C 3.58556,6.11128 1.87466,8.7323 0.561059,11.9031 Z M 8.18919,6.73895 C 9.97184,5.07256 11.9198,3.91476 14.0388,3.23365 L 12.9372,-0.193655 C 10.2775,0.661232 7.87349,2.1061 5.73081,4.10905 Z M 14.0663,3.22456 C 16.2799,2.47353 18.4741,2.104 20.656,2.104 v -3.6 c -2.5968,0 -5.1812,0.44113 -7.7463,1.311435 z M 20.656,2.104 c 2.4898,0 4.5208,0.16678 6.1193,0.47868 l 0.6894,-3.533365 C 25.5645,-1.32145 23.2862,-1.496 20.656,-1.496 Z m 6.1272,0.48021 c 1.7237,0.32832 3.0703,0.70596 4.0737,1.11475 l 1.3582,-3.333929 c -1.3006,-0.529867 -2.898,-0.962896 -4.7583,-1.317242 z m 2.9997,-0.96027 -1.728,7.424 3.5062,0.81612 1.728,-7.424 z m 0.8017,6.20822 C 29.4095,7.27015 28.0598,6.887 26.5659,6.65358 l -0.5558,3.55682 c 1.2368,0.1933 2.2337,0.4928 3.0213,0.8694 z m -4.01,-1.17719 C 25.1263,6.42137 23.4026,6.312 21.424,6.312 v 3.6 c 1.8614,0 3.3804,0.104 4.5774,0.297 z M 21.424,6.312 c -4.026,0 -7.3956,1.45801 -9.9378,4.3989 l 2.7236,2.3542 C 16.0197,10.9713 18.3673,9.912 21.424,9.912 Z m -9.9492,4.4123 C 8.94212,13.7128 7.848,18.1247 7.848,23.6 h 3.6 c 0,-5.106 1.0392,-8.5021 2.7732,-10.5483 z M 7.848,23.6 c 0,2.4363 0.27062,4.7067 0.82878,6.7998 L 12.1552,29.4722 C 11.6894,27.7253 11.448,25.7717 11.448,23.6 Z m 0.83143,6.8096 C 9.24286,32.4755 10.1021,34.3094 11.28,35.88 l 2.88,-2.16 C 13.2899,32.5599 12.6131,31.1511 12.1526,29.4624 Z M 11.3189,35.93 c 1.2304,1.5257 2.7358,2.7338 4.5001,3.616 l 1.61,-3.22 C 16.1213,35.6722 15.024,34.7896 14.1211,33.67 Z m 4.5536,3.6416 c 1.8528,0.8513 3.93,1.2524 6.1915,1.2524 v -3.6 c -1.8345,0 -3.384,-0.3242 -4.6885,-0.9236 z m 6.1915,1.2524 c 2.0284,0 3.8301,-0.2015 5.3659,-0.6474 l -1.0038,-3.4572 c -1.1095,0.3221 -2.5505,0.5046 -4.3621,0.5046 z m 5.3659,-0.6474 c 1.4459,-0.4198 2.7493,-0.9687 3.89,-1.663 l -1.8718,-3.0752 c -0.822,0.5004 -1.8226,0.9328 -3.022,1.281 z m 1.2078,-2.764 1.792,7.168 3.4926,-0.8732 -1.792,-7.168 z M 51.785,6.384 53.1775,7.52465 53.1834,7.5174 Z M 74.249,1.968 73.491,3.60061 v 0 z m 5.952,4.736 -1.4256,1.09891 v 0 z m 3.52,7.36 -1.7384,0.467 v 0 z m -3.84,26.816 -1.3912,-1.1422 -0.0013,0.0016 z m -22.464,4.352 0.758,-1.6326 v 0 z m -5.952,-4.736 -1.44,1.08 0.0071,0.0095 0.0073,0.0094 z m 5.184,-10.624 -1.7651,0.353 0.0016,0.0077 z m 1.728,4.864 -1.5688,0.8825 0.0103,0.0183 0.0108,0.0182 z m 3.072,3.2 -0.9493,1.5294 v 0 z M 73.097,35.44 71.6236,34.406 v 0 z m 1.984,-17.92 -1.771,0.322 0.0036,0.0194 0.0039,0.0193 z m -1.664,-4.928 -1.5802,0.8619 v 0 z m -3.008,-3.264 -0.9864,1.5056 0.0184,0.0121 0.0187,0.0117 z m -11.776,2.56 1.4818,1.0219 0.0041,-0.0059 0.004,-0.0059 z M 48.657,23.6 c 0,-7.2295 1.5932,-12.5018 4.5205,-16.07537 L 50.3925,5.24336 C 46.7492,9.69113 45.057,15.8962 45.057,23.6 Z M 53.1834,7.5174 C 56.0671,3.95956 60.2037,2.104 65.865,2.104 v -3.6 c -6.5414,0 -11.7914,2.197766 -15.4784,6.7466 z M 65.865,2.104 c 2.9933,0 5.5196,0.51862 7.626,1.49661 L 75.007,0.335383 C 72.3348,-0.905295 69.2717,-1.496 65.865,-1.496 Z m 7.626,1.49661 c 2.1323,0.98999 3.8856,2.38764 5.2844,4.2023 L 81.6266,5.60508 C 79.8681,3.32374 77.6534,1.56406 75.007,0.335382 Z m 5.2844,4.2023 c 1.4143,1.83481 2.492,4.06569 3.2072,6.72809 l 3.4768,-0.934 C 84.6386,10.542 83.3696,7.86628 81.6266,5.60508 Z m 3.2072,6.72809 c 0.7205,2.6817 1.0904,5.7003 1.0904,9.069 h 3.6 c 0,-3.6286 -0.3981,-6.9674 -1.2136,-10.003 z M 83.073,23.6 c 0,7.2232 -1.6117,12.5187 -4.5832,16.1378 l 2.7824,2.2844 C 84.9567,37.5346 86.673,31.3101 86.673,23.6 Z M 78.4885,39.7394 C 75.6046,43.26 71.4857,45.096 65.865,45.096 v 3.6 c 6.4967,0 11.7217,-2.1747 15.4085,-6.6754 z M 65.865,45.096 c -3.0399,0 -5.5865,-0.52 -7.69,-1.4966 l -1.516,3.2652 c 2.6751,1.242 5.7606,1.8314 9.206,1.8314 z m -7.69,-1.4966 c -2.1323,-0.99 -3.8856,-2.3877 -5.2844,-4.2023 l -2.8512,2.1978 c 1.7585,2.2814 3.9732,4.041 6.6196,5.2697 z m -5.27,-4.1834 c -1.3787,-1.8382 -2.44,-4.0756 -3.1576,-6.747 l -3.4768,0.934 c 0.8184,3.046 2.0611,5.7152 3.7544,7.973 z M 49.7474,32.669 C 49.0269,29.9873 48.657,26.9687 48.657,23.6 h -3.6 c 0,3.6286 0.3981,6.9674 1.2136,10.003 z M 54.273,23.6 c 0,2.3621 0.2005,4.5725 0.611,6.625 l 3.53,-0.706 C 58.0565,27.7314 57.873,25.7606 57.873,23.6 Z m 0.6125,6.6327 c 0.4134,2.021 1.0453,3.8261 1.9227,5.3858 l 3.1376,-1.765 c -0.6586,-1.1709 -1.1787,-2.6086 -1.5333,-4.3422 z m 1.9438,5.4223 c 0.9446,1.5909 2.1658,2.8764 3.6704,3.8104 l 1.8986,-3.0588 c -0.9701,-0.602 -1.7969,-1.4499 -2.4736,-2.5896 z m 3.6704,3.8104 c 1.5683,0.9734 3.3817,1.4226 5.3653,1.4226 v -3.6 c -1.4297,0 -2.5604,-0.3188 -3.4667,-0.8814 z m 5.3653,1.4226 c 3.6677,0 6.6429,-1.475 8.7054,-4.414 l -2.9468,-2.068 c -1.3509,1.925 -3.197,2.882 -5.7586,2.882 z m 8.7054,-4.414 C 76.6041,33.5759 77.457,29.1632 77.457,23.6 h -3.6 c 0,5.3595 -0.8538,8.8401 -2.2334,10.806 z M 77.457,23.6 c 0,-2.2812 -0.2012,-4.43 -0.6125,-6.4407 l -3.527,0.7214 c 0.3567,1.7439 0.5395,3.6485 0.5395,5.7193 z m -0.605,-6.402 c -0.3694,-2.0315 -0.9793,-3.8628 -1.8548,-5.4679 l -3.1604,1.7238 c 0.6605,1.2109 1.1599,2.6649 1.4732,4.3881 z M 74.9972,11.7301 C 74.0956,10.0772 72.8863,8.74706 71.3583,7.79865 l -1.8986,3.05875 c 0.9467,0.5875 1.7427,1.4334 2.3771,2.5965 z M 71.3954,7.82237 C 69.8081,6.78237 67.9326,6.312 65.865,6.312 v 3.6 c 1.5164,0 2.6703,0.3403 3.5576,0.9216 z M 65.865,6.312 c -3.6943,0 -6.6707,1.54042 -8.7219,4.5659 l 2.9798,2.0202 C 61.485,10.8889 63.3299,9.912 65.865,9.912 Z m -8.7138,4.5541 C 55.131,13.7954 54.273,18.1496 54.273,23.6 h 3.6 c 0,-5.2162 0.8487,-8.6701 2.2418,-10.6901 z m 57.9248,11.7739 -1.61,0.805 0.062,0.1244 0.081,0.1134 z m -3.52,-7.04 1.61,-0.805 -0.498,-0.995 h -1.112 z m -0.32,0 v -1.8 h -2.081 l 0.3,2.0591 z m 1.024,7.04 h 1.8 v -0.1302 l -0.019,-0.1289 z m 0,23.36 v 1.8 h 1.8 V 46 Z m -8.32,0 h -1.8 v 1.8 h 1.8 z m 0,-45.120003 v -1.8 h -1.8 v 1.8 z m 6.4,0 1.467,-1.042504 -0.538,-0.757496 H 110.34 Z M 127.3,24.752 l 1.613,-0.799 -0.063,-0.1275 -0.083,-0.116 z m 3.392,6.848 -1.613,0.7989 0.496,1.0011 h 1.117 z m 0.32,0 v 1.8 h 2.089 l -0.309,-2.0662 z m -1.024,-6.848 h -1.8 v 0.1338 l 0.02,0.1324 z m 0,-23.552 v -1.800003 h -1.8 V 1.2 Z m 8.32,0 h 1.8 v -1.800003 h -1.8 z m 0,45.12 v 1.8 h 1.8 v -1.8 z m -6.4,0 -1.467,1.0429 0.538,0.7571 h 0.929 z m -15.222,-24.485 -3.52,-7.04 -3.22,1.61 3.52,7.04 z m -5.13,-8.035 h -0.32 v 3.6 h 0.32 z m -2.101,2.0591 1.024,7.04 3.562,-0.5182 -1.024,-7.04 z M 110.46,22.64 V 46 h 3.6 V 22.64 Z m 1.8,21.56 h -8.32 v 3.6 h 8.32 z M 105.74,46 V 0.879997 h -3.6 V 46 Z m -1.8,-43.32 h 6.4 v -3.600003 h -6.4 z m 4.933,-0.7575 16.96,23.872 2.934,-2.085 -16.96,-23.872007 z m 16.814,23.6284 3.392,6.848 3.226,-1.5978 -3.392,-6.8481 z m 5.005,7.8491 h 0.32 v -3.6 h -0.32 z m 2.1,-2.0662 -1.024,-6.848 -3.56,0.5324 1.024,6.848 z M 131.788,24.752 V 1.2 h -3.6 V 24.752 Z M 129.988,3 h 8.32 v -3.600003 h -8.32 z m 6.52,-1.8 v 45.12 h 3.6 V 1.2 Z m 1.8,43.32 h -6.4 v 3.6 h 6.4 z m -4.933,0.7571 -16.832,-23.68 -2.934,2.0857 16.832,23.6801 z M 190.61,9.008 v 1.8 h 1.8 v -1.8 z m -13.056,0 v -1.8 h -1.8 v 1.8 z m 0,36.992 v 1.8 h 1.8 V 46 Z m -8.768,0 h -1.8 v 1.8 h 1.8 z m 0,-36.992 h 1.8 v -1.8 h -1.8 z m -13.12,0 h -1.8 v 1.8 h 1.8 z m 0,-7.808 v -1.800003 h -1.8 V 1.2 Z m 34.944,0 h 1.8 v -1.800003 h -1.8 z m 0,6.008 h -13.056 v 3.6 h 13.056 z m -14.856,1.8 V 46 h 3.6 V 9.008 Z m 1.8,35.192 h -8.768 v 3.6 h 8.768 z M 170.586,46 V 9.008 h -3.6 V 46 Z m -1.8,-38.792 h -13.12 v 3.6 h 13.12 z m -11.32,1.8 V 1.2 h -3.6 V 9.008 Z M 155.666,3 H 190.61 V -0.600003 H 155.666 Z M 188.81,1.2 v 7.808 h 3.6 V 1.2 Z m 36.247,34.88 1.693,-0.6116 -0.429,-1.1884 h -1.264 z m -13.76,0 v -1.8 h -1.286 l -0.417,1.2176 z M 207.905,46 v 1.8 h 1.287 l 0.417,-1.2176 z m -8.768,0 -1.694,-0.6059 -0.86,2.4059 h 2.554 z M 215.265,0.879997 v -1.8 h -1.268 l -0.426,1.194138 z m 6.464,0 1.695,-0.605862 -0.426,-1.194138 h -1.269 z M 237.857,46 v 1.8 h 2.555 l -0.86,-2.4059 z m -9.216,0 -1.692,0.6116 0.429,1.1884 h 1.263 z M 213.537,29.04 211.828,28.4774 211.05,30.84 h 2.487 z m 9.6,0 v 1.8 h 2.498 l -0.79,-2.3692 z m -3.328,-9.984 -1.768,0.3375 0.023,0.1179 0.038,0.1138 z m -1.344,-7.04 1.769,-0.3375 -0.28,-1.4625 h -1.489 z m -0.32,0 v -1.8 h -1.491 l -0.277,1.4654 z m -1.344,7.104 1.71,0.5626 0.037,-0.1121 0.022,-0.1159 z m 8.256,15.16 h -13.76 v 3.6 h 13.76 z m -15.463,1.2176 -3.392,9.92 3.407,1.1648 3.392,-9.92 z M 207.905,44.2 h -8.768 v 3.6 h 8.768 z M 200.832,46.6059 216.96,1.48586 213.571,0.274135 197.443,45.3941 Z M 215.265,2.68 h 6.464 v -3.600003 h -6.464 z m 4.77,-1.19414 16.128,45.12004 3.389,-1.2118 L 223.424,0.274135 Z M 237.857,44.2 h -9.216 v 3.6 h 9.216 z m -7.523,1.1884 -3.584,-9.92 -3.385,1.2232 3.584,9.92 z M 213.537,30.84 h 9.6 v -3.6 h -9.6 z m 11.308,-2.3692 -3.328,-9.984 -3.415,1.1384 3.328,9.984 z m -3.267,-9.7523 -1.344,-7.04 -3.537,0.675 1.344,7.04 z m -3.113,-8.5025 h -0.32 v 3.6 h 0.32 z m -2.088,1.4654 -1.344,7.104 3.537,0.6692 1.344,-7.104 z m -1.285,6.876 -3.264,9.92 3.419,1.1252 3.264,-9.92 z m 67.772,25.5866 1.05,1.4616 0.992,-0.713 -0.296,-1.1852 z m -5.248,2.112 -0.354,-1.7651 -0.006,0.0015 z m -14.144,-0.576 -0.606,1.6951 0.018,0.0065 0.018,0.006 z m -6.337,-4.032 -1.287,1.2581 0.007,0.0074 0.008,0.0073 z m -4.415,-7.232 -1.696,0.6054 0.006,0.0147 0.005,0.0146 z m 0.191,-21.824 -1.662,-0.689 -0.005,0.0122 z m 4.737,-7.168 1.228,1.3159 0.001,-9.5e-4 z m 6.528,-3.904 0.55,1.71365 0.014,-0.00444 0.014,-0.00465 z m 13.632,-0.704002 -0.345,1.766702 0.008,0.00151 z m 4.416,1.216002 1.753,0.40806 0.348,-1.495646 -1.422,-0.579383 z m -1.728,7.424 -0.777,1.6238 2.022,0.9669 0.508,-2.18264 z m -3.52,-1.024 -0.287,1.7771 0.009,0.0013 z m -13.44,3.456 -1.362,-1.1771 -0.006,0.0066 -0.006,0.0068 z m -2.432,18.048 -1.74,0.4638 0.003,0.0098 z m 2.304,4.864 -1.441,1.08 0.019,0.0253 0.02,0.0247 z m 3.904,3.136 -0.805,1.61 0.026,0.0132 0.027,0.0124 z m 10.304,0.512 -0.502,-1.7286 v 0 z m 3.456,-1.472 1.746,-0.4366 -0.593,-2.3725 -2.089,1.2715 z m 0.741,5.7064 c -1.105,0.7945 -2.598,1.418 -4.551,1.8086 l 0.707,3.53 c 2.313,-0.4627 4.32,-1.2472 5.945,-2.4154 z m -4.557,1.81 c -1.968,0.4015 -4.002,0.6036 -6.104,0.6036 v 3.6 c 2.334,0 4.61,-0.2246 6.823,-0.6764 z m -6.104,0.6036 c -2.504,0 -4.872,-0.3771 -7.111,-1.1236 l -1.139,3.4152 c 2.625,0.8748 5.377,1.3084 8.25,1.3084 z m -7.075,-1.1111 c -2.133,-0.7617 -4.018,-1.9591 -5.669,-3.6097 l -2.545,2.5456 c 2.018,2.0187 4.357,3.5093 7.003,4.4543 z m -5.654,-3.595 c -1.63,-1.6675 -2.98,-3.8522 -4.019,-6.6086 l -3.369,1.2694 c 1.18,3.1316 2.773,5.7682 4.813,7.8554 z m -4.008,-6.5793 C 253.436,31.0707 252.92,27.682 252.92,23.6 h -3.6 c 0,4.366 0.55,8.1879 1.704,11.4214 z M 252.92,23.6 c 0,-4.2455 0.579,-7.6675 1.659,-10.3312 l -3.335,-1.3536 c -1.309,3.2243 -1.924,7.141 -1.924,11.6848 z m 1.654,-10.3191 c 1.162,-2.8025 2.608,-4.96018 4.302,-6.541 l -2.457,-2.6318 c -2.146,2.00318 -3.857,4.6242 -5.17,7.795 z m 4.303,-6.54195 c 1.782,-1.66639 3.73,-2.82419 5.849,-3.5053 l -1.101,-3.427305 c -2.66,0.854887 -5.064,2.299755 -7.207,4.302705 z m 5.877,-3.51439 c 2.213,-0.75103 4.408,-1.12056 6.59,-1.12056 v -3.6 c -2.597,0 -5.182,0.44113 -7.747,1.311435 z m 6.59,-1.12056 c 2.489,0 4.52,0.16678 6.119,0.47868 l 0.689,-3.533365 C 276.252,-1.32145 273.974,-1.496 271.344,-1.496 Z m 6.127,0.48021 c 1.723,0.32832 3.07,0.70596 4.073,1.11475 l 1.359,-3.333929 c -1.301,-0.529867 -2.898,-0.962896 -4.759,-1.317242 z m 2.999,-0.96027 -1.728,7.424 3.507,0.81612 1.728,-7.424 z m 0.802,6.20822 C 280.097,7.27015 278.747,6.887 277.253,6.65358 l -0.555,3.55682 c 1.236,0.1933 2.233,0.4928 3.021,0.8694 z m -4.01,-1.17719 C 275.814,6.42137 274.09,6.312 272.112,6.312 v 3.6 c 1.861,0 3.38,0.104 4.577,0.297 z M 272.112,6.312 c -4.027,0 -7.396,1.45801 -9.938,4.3989 l 2.723,2.3542 c 1.81,-2.0938 4.158,-3.1531 7.215,-3.1531 z m -9.95,4.4123 c -2.532,2.9885 -3.626,7.4004 -3.626,12.8757 h 3.6 c 0,-5.106 1.039,-8.5021 2.773,-10.5483 z M 258.536,23.6 c 0,2.4363 0.27,4.7067 0.828,6.7998 l 3.479,-0.9276 c -0.466,-1.7469 -0.707,-3.7005 -0.707,-5.8722 z m 0.831,6.8096 c 0.563,2.0659 1.423,3.8998 2.6,5.4704 l 2.881,-2.16 c -0.871,-1.1601 -1.547,-2.5689 -2.008,-4.2576 z m 2.639,5.5204 c 1.231,1.5257 2.736,2.7338 4.501,3.616 l 1.609,-3.22 c -1.307,-0.6538 -2.404,-1.5364 -3.307,-2.656 z m 4.554,3.6416 c 1.853,0.8513 3.93,1.2524 6.192,1.2524 v -3.6 c -1.835,0 -3.384,-0.3242 -4.689,-0.9236 z m 6.192,1.2524 c 2.028,0 3.83,-0.2015 5.365,-0.6474 l -1.003,-3.4572 c -1.11,0.3221 -2.551,0.5046 -4.362,0.5046 z m 5.365,-0.6474 c 1.446,-0.4198 2.75,-0.9687 3.89,-1.663 l -1.871,-3.0752 c -0.822,0.5004 -1.823,0.9328 -3.022,1.281 z m 1.208,-2.764 1.792,7.168 3.493,-0.8732 -1.792,-7.168 z M 330.073,9.008 v 1.8 h 1.8 v -1.8 z m -13.056,0 v -1.8 h -1.8 v 1.8 z m 0,36.992 v 1.8 h 1.8 V 46 Z m -8.768,0 h -1.8 v 1.8 h 1.8 z m 0,-36.992 h 1.8 v -1.8 h -1.8 z m -13.12,0 h -1.8 v 1.8 h 1.8 z m 0,-7.808 v -1.800003 h -1.8 V 1.2 Z m 34.944,0 h 1.8 v -1.800003 h -1.8 z m 0,6.008 h -13.056 v 3.6 h 13.056 z m -14.856,1.8 V 46 h 3.6 V 9.008 Z m 1.8,35.192 h -8.768 v 3.6 h 8.768 z M 310.049,46 V 9.008 h -3.6 V 46 Z m -1.8,-38.792 h -13.12 v 3.6 h 13.12 z m -11.32,1.8 V 1.2 h -3.6 V 9.008 Z M 295.129,3 h 34.944 v -3.600003 h -34.944 z m 33.144,-1.8 v 7.808 h 3.6 V 1.2 Z"
         fill="#ffae52"
         mask="url(#path-1-outside-1_290_2)"
         id="path2-7" /></g></g></svg>
